<svg id="Chat" xmlns="http://www.w3.org/2000/svg" width="28" height="28" viewBox="0 0 28 28">
  <rect id="Chat-2" data-name="Chat" width="28" height="28" fill="rgba(0,0,0,0)"/>
  <g id="Iconly_Light-Outline_Chat" data-name="Iconly/Light-Outline/Chat">
    <g id="Chat-3" data-name="Chat">
      <path id="Combined-Shape" d="M12.54,0a12.539,12.539,0,0,1,8.868,21.408A12.6,12.6,0,0,1,7.256,23.923a4.175,4.175,0,0,0-1.29-.385,5.056,5.056,0,0,0-1.394.351c-1.02.35-2.289.786-3.228-.149s-.5-2.2-.156-3.221a5.019,5.019,0,0,0,.348-1.412,4.1,4.1,0,0,0-.393-1.324A12.58,12.58,0,0,1,3.673,3.671,12.453,12.453,0,0,1,12.54,0Zm0,1.75A10.717,10.717,0,0,0,4.91,4.909a10.842,10.842,0,0,0-2.162,12.18,5.509,5.509,0,0,1,.537,2.017,6.308,6.308,0,0,1-.441,1.976c-.17.5-.428,1.253-.263,1.419S3.5,22.4,4,22.233a6.37,6.37,0,0,1,1.958-.446,5.42,5.42,0,0,1,1.99.528A10.8,10.8,0,0,0,20.171,4.908a10.717,10.717,0,0,0-7.63-3.158Zm4.6,10.106a1.166,1.166,0,1,1-.01,0Zm-4.677,0a1.166,1.166,0,1,1-.01,0Zm-4.677,0a1.166,1.166,0,1,1-.01,0Z" transform="translate(1.167 1.167)" fill="rgba(0,0,0,0.6)" fill-rule="evenodd"/>
    </g>
  </g>
</svg>
