<svg xmlns="http://www.w3.org/2000/svg" width="22.167" height="23.333" viewBox="0 0 22.167 23.333">
  <g id="Iconly_Bold_Home" data-name="Iconly/Bold/Home" transform="translate(-2.917 -2.333)">
    <g id="Home">
      <path id="Vector" d="M7.709,21.913a1.436,1.436,0,0,1-1.442,1.421H4.032A4.018,4.018,0,0,1,0,19.33V9.178A2.886,2.886,0,0,1,1.128,6.959L8.733.871A3.614,3.614,0,0,1,13.34.789l7.782,6.17a2.885,2.885,0,0,1,1.045,2.219V19.341a3.978,3.978,0,0,1-1.182,2.827,4.037,4.037,0,0,1-2.851,1.166H15.847a1.436,1.436,0,0,1-1.016-.42,1.415,1.415,0,0,1-.415-1.011V18.335a1.643,1.643,0,0,0-.486-1.166,1.667,1.667,0,0,0-1.174-.483H9.4a1.655,1.655,0,0,0-1.661,1.649V21.9Z" transform="translate(2.917 2.333)" fill="#00acff"/>
    </g>
  </g>
</svg>
