<svg xmlns="http://www.w3.org/2000/svg" width="25.401" height="19.588" viewBox="0 0 25.401 19.588">
  <g id="Iconly_Light-Outline_3-User" data-name="Iconly/Light-Outline/3-User" transform="translate(-1.167 -4.667)">
    <g id="_3-User" data-name="3-User">
      <path id="Combined-Shape" d="M12.7,12.15h.426c2.252.015,7.4.242,7.4,3.731,0,3.466-4.968,3.692-7.364,3.707h-.888c-2.252-.015-7.4-.242-7.4-3.726s5.148-3.7,7.4-3.711H12.7Zm0,1.75c-2.772,0-6.077.341-6.077,1.962,0,1.585,3.108,1.956,5.824,1.977H12.7c2.772,0,6.076-.34,6.076-1.958,0-1.638-3.3-1.982-6.076-1.982Zm9.279-2.223c2.827.424,3.421,1.751,3.421,2.791A2.561,2.561,0,0,1,23.483,16.9a.885.885,0,0,1-.312.057.875.875,0,0,1-.311-1.693c.791-.3.791-.634.791-.793,0-.511-.65-.868-1.931-1.059a.875.875,0,1,1,.26-1.731Zm-17.563.735a.877.877,0,0,1-.736,1C2.4,13.6,1.75,13.956,1.75,14.467c0,.16,0,.491.792.793a.875.875,0,0,1-.312,1.693.885.885,0,0,1-.312-.057A2.563,2.563,0,0,1,0,14.467c0-1.038.594-2.367,3.422-2.791a.881.881,0,0,1,1,.735ZM12.7,0a5.331,5.331,0,0,1,0,10.661H12.67a5.314,5.314,0,0,1-5.3-5.334A5.335,5.335,0,0,1,12.7,0Zm0,1.75A3.584,3.584,0,0,0,9.122,5.33a3.563,3.563,0,0,0,3.55,3.58l.029.875V8.911a3.58,3.58,0,1,0,0-7.161Zm7.221-.607a4.225,4.225,0,0,1-.1,8.353A.86.86,0,0,1,19.7,9.5a.875.875,0,0,1-.12-1.742,2.475,2.475,0,0,0,.056-4.893.875.875,0,1,1,.285-1.727ZM6.486,1.864a.875.875,0,0,1-.721,1.006A2.475,2.475,0,0,0,5.82,7.762.875.875,0,0,1,5.7,9.5.858.858,0,0,1,5.579,9.5a4.225,4.225,0,0,1-.1-8.353.87.87,0,0,1,1.006.721Z" transform="translate(1.167 4.667)" fill="rgba(0,0,0,0.6)" fill-rule="evenodd"/>
    </g>
  </g>
</svg>
