<svg id="Notification" xmlns="http://www.w3.org/2000/svg" width="28" height="28" viewBox="0 0 28 28">
  <rect id="Notification-2" data-name="Notification" width="28" height="28" fill="rgba(0,0,0,0)"/>
  <g id="Iconly_Light-Outline_Notification" data-name="Iconly/Light-Outline/Notification">
    <g id="Notification-3" data-name="Notification">
      <path id="Combined-Shape" d="M8.545,22.29a2.943,2.943,0,0,0,2.185,1.043h0a2.953,2.953,0,0,0,2.193-1.044.875.875,0,0,1,1.3,1.171,4.685,4.685,0,0,1-3.494,1.623h0a4.671,4.671,0,0,1-3.485-1.624.874.874,0,0,1,1.3-1.169ZM10.788,0c5.186,0,8.67,4.039,8.67,7.811a5.968,5.968,0,0,0,1.017,3.635,6.334,6.334,0,0,1,1.1,3.687c-.407,4.721-5.336,5.106-10.792,5.106S.4,19.854,0,15.208a6.389,6.389,0,0,1,1.1-3.761l.183-.308a5.852,5.852,0,0,0,.834-3.328C2.119,4.039,5.6,0,10.788,0Zm0,1.75c-4.077,0-6.919,3.194-6.919,6.061A7.606,7.606,0,0,1,2.6,12.347a4.613,4.613,0,0,0-.854,2.786c.195,2.2,1.647,3.356,9.042,3.356,7.354,0,8.851-1.208,9.045-3.432a4.566,4.566,0,0,0-.858-2.71,7.606,7.606,0,0,1-1.268-4.536c0-2.866-2.842-6.061-6.92-6.061Z" transform="translate(3.5 1.167)" fill="rgba(0,0,0,0.6)" fill-rule="evenodd"/>
    </g>
  </g>
</svg>
